<svg width="48" height="48" viewBox="0 0 48 48" fill="none" xmlns="http://www.w3.org/2000/svg">
<path d="M24 44C35.0457 44 44 35.0457 44 24C44 12.9543 35.0457 4 24 4C12.9543 4 4 12.9543 4 24C4 35.0457 12.9543 44 24 44Z" stroke="#30475E" stroke-width="4" stroke-linecap="round" stroke-linejoin="round"/>
<path d="M29 15C29 12.7909 27.2091 11 25 11H19C16.7909 11 15 12.7909 15 15V20C15 22.2091 16.7909 24 19 24H29C31.2091 24 33 25.7909 33 28V33C33 35.2091 31.2091 37 29 37H23C20.7909 37 19 35.2091 19 33" stroke="#30475E" stroke-width="4" stroke-linecap="round" stroke-linejoin="round"/>
</svg>
